<svg xmlns="http://www.w3.org/2000/svg" width="24" height="24" fill="none" viewBox="0 0 24 24">
  <path fill="#fff" d="M21.75 9.09V19A3.751 3.751 0 0 1 18 22.75H6A3.751 3.751 0 0 1 2.25 19V5A3.751 3.751 0 0 1 6 1.25h8.59c.221 0 .442.02.66.06a3.726 3.726 0 0 1 2.23 1.29l3.4 4.09c.49.582.79 1.302.86 2.06 0 .11.01.23.01.34Z"/>
  <path fill="#4676FB" d="M16 12.75H8a.75.75 0 1 1 0-1.5h8a.75.75 0 1 1 0 1.5Zm-4 4H8a.75.75 0 1 1 0-1.5h4a.75.75 0 1 1 0 1.5Z"/>
  <path fill="#fff" d="M21.74 8.75H18A2.748 2.748 0 0 1 15.25 6V1.31a3.726 3.726 0 0 1 2.23 1.29l3.4 4.09c.49.583.79 1.302.86 2.06Z"/>
  <path fill="#4676FB" d="M18 22.75H6A3.755 3.755 0 0 1 2.25 19V5A3.755 3.755 0 0 1 6 1.25h8.6a3.74 3.74 0 0 1 2.876 1.35l3.405 4.087c.56.674.868 1.523.869 2.4V19A3.755 3.755 0 0 1 18 22.75Zm-12-20A2.253 2.253 0 0 0 3.75 5v14A2.253 2.253 0 0 0 6 21.25h12A2.253 2.253 0 0 0 20.25 19V9.086c0-.526-.185-1.035-.521-1.44L16.323 3.56a2.24 2.24 0 0 0-1.723-.81H6Z"/>
  <path fill="#4676FB" d="M18 8.75A2.752 2.752 0 0 1 15.25 6V2.35a.75.75 0 1 1 1.5 0V6A1.252 1.252 0 0 0 18 7.25a.75.75 0 1 1 0 1.5Z"/>
</svg>
