<svg xmlns="http://www.w3.org/2000/svg" width="24" height="24" fill="none" viewBox="0 0 24 24">
  <path fill="#8D8D8D" d="m21.519 20.671-4.8-4.8a8.15 8.15 0 0 0 1.82-3.84 8.237 8.237 0 0 0-.34-4.14 7.717 7.717 0 0 0-2.38-3.52 8.142 8.142 0 0 0-3.82-1.82 8.106 8.106 0 0 0-4.1.34 7.74 7.74 0 0 0-3.48 2.38 8.15 8.15 0 0 0-1.82 3.84 8.237 8.237 0 0 0 .34 4.14 7.718 7.718 0 0 0 2.38 3.52 8.256 8.256 0 0 0 3.46 1.74 8.04 8.04 0 0 0 3.74 0 7.956 7.956 0 0 0 3.4-1.74l4.8 4.8.8-.9Zm-10.9-3.2c-1.24 0-2.4-.313-3.48-.94a6.908 6.908 0 0 1-2.48-2.48 6.819 6.819 0 0 1-.94-3.48c0-1.24.313-2.4.94-3.48a6.908 6.908 0 0 1 2.48-2.48 6.819 6.819 0 0 1 3.48-.94c1.24 0 2.4.314 3.48.94a6.908 6.908 0 0 1 2.48 2.48c.627 1.08.94 2.24.94 3.48 0 1.24-.313 2.4-.94 3.48a6.908 6.908 0 0 1-2.48 2.48c-1.08.627-2.24.94-3.48.94Z"/>
</svg>
