<svg xmlns="http://www.w3.org/2000/svg" width="16" height="16" fill="none" viewBox="0 0 16 16">
  <g clip-path="url(#a)">
    <path fill="#34A853" d="M14.428 4.184 10.55.305a.242.242 0 0 0-.163-.063H4.261a1.535 1.535 0 0 0-1.534 1.532v4.9h-.192A1.035 1.035 0 0 0 1.5 7.709v4.696a1.03 1.03 0 0 0 1.03 1.027h.2v.793a1.535 1.535 0 0 0 1.531 1.532h8.708a1.534 1.534 0 0 0 1.532-1.532V4.363a.242.242 0 0 0-.072-.179ZM2.724 8.262h-.189a.553.553 0 0 1 0-1.103h.19v1.103Zm11.292 5.963a1.05 1.05 0 0 1-1.047 1.048H4.261a1.05 1.05 0 0 1-1.05-1.048v-.793h7.656a.243.243 0 0 0 .243-.242V8.502a.242.242 0 0 0-.243-.243H3.212V1.774A1.05 1.05 0 0 1 4.262.727h5.883v2.337a1.536 1.536 0 0 0 1.532 1.542h2.34v9.62ZM3.82 9.723h.526l.449.728.438-.728h.522l-.694 1.084.757 1.15h-.539l-.484-.774-.485.773h-.563l.764-1.166-.691-1.067Zm3.818 1.857v.376H6.06V9.743h.45v1.837h1.128Zm1.523-.407a.342.342 0 0 0-.16-.097 4.878 4.878 0 0 0-.362-.097 1.228 1.228 0 0 1-.509-.223.582.582 0 0 1-.109-.766.623.623 0 0 1 .279-.228c.14-.05.29-.073.439-.065a.947.947 0 0 1 .633.184.66.66 0 0 1 .223.485l-.451.02a.388.388 0 0 0-.124-.243.463.463 0 0 0-.293-.085.504.504 0 0 0-.308.082.165.165 0 0 0-.07.139.172.172 0 0 0 .067.135c.127.075.267.125.412.148.168.035.33.088.485.16a.64.64 0 0 1 .243.228c.061.108.091.23.087.354a.647.647 0 0 1-.107.361.62.62 0 0 1-.3.243 1.22 1.22 0 0 1-.485.082.97.97 0 0 1-.65-.196.844.844 0 0 1-.271-.57l.438-.041a.536.536 0 0 0 .16.322c.093.074.21.11.328.104a.502.502 0 0 0 .327-.092.276.276 0 0 0 .112-.215.196.196 0 0 0-.034-.129Z"/>
  </g>
  <defs>
    <clipPath id="a">
      <path fill="#fff" d="M0 0h16v16H0z"/>
    </clipPath>
  </defs>
</svg>
