<svg xmlns="http://www.w3.org/2000/svg" width="16" height="16" fill="none" viewBox="0 0 16 16">
  <path fill="#4676FB" d="M6.67 8.667H2.002a.667.667 0 0 0-.667.667V14a.667.667 0 0 0 .667.667h4.666A.667.667 0 0 0 7.336 14V9.334a.667.667 0 0 0-.667-.667Zm-.667 4.667H2.669V10h3.334v3.334Zm8-12H9.336A.667.667 0 0 0 8.669 2v4.667a.667.667 0 0 0 .667.667h4.667a.667.667 0 0 0 .666-.667V2a.667.667 0 0 0-.666-.667ZM13.336 6h-3.333V2.667h3.333V6Zm.667 2.667H9.336a.667.667 0 0 0-.667.667V14a.667.667 0 0 0 .667.667h4.667a.667.667 0 0 0 .666-.667V9.334a.667.667 0 0 0-.666-.667Zm-.667 4.667h-3.333V10h3.333v3.334Zm-6.667-12H2.003A.667.667 0 0 0 1.336 2v4.667a.667.667 0 0 0 .667.667h4.666a.667.667 0 0 0 .667-.667V2a.667.667 0 0 0-.667-.667ZM6.003 6H2.669V2.667h3.334V6Z"/>
</svg>
