<svg xmlns="http://www.w3.org/2000/svg" width="15" height="14" fill="none" viewBox="0 0 15 14">
  <path fill="#000" d="M.5 2.5h.071a1.99 1.99 0 0 0 3.858 0H14.5a.5.5 0 0 0 0-1H4.429a1.99 1.99 0 0 0-3.858 0H.5a.5.5 0 0 0 0 1Zm2-1.5a1 1 0 1 1 0 2 1 1 0 0 1 0-2Zm12 5.5h-.071a1.99 1.99 0 0 0-3.858 0H.5a.5.5 0 0 0 0 1h10.071a1.99 1.99 0 0 0 3.858 0h.071a.5.5 0 0 0 0-1Zm-2 1.5a1 1 0 1 1 0-2 1 1 0 0 1 0 2Zm2 3.5H9.429a1.99 1.99 0 0 0-3.858 0H.5a.5.5 0 0 0 0 1h5.071a1.99 1.99 0 0 0 3.858 0H14.5a.5.5 0 1 0 0-1Zm-7 1.5a1 1 0 1 1 0-2 1 1 0 0 1 0 2Z"/>
</svg>
