<svg xmlns="http://www.w3.org/2000/svg" width="30" height="30" fill="none" viewBox="0 0 30 30">
  <rect width="30" height="30" fill="#4676FB" rx="15"/>
  <path fill="#fff" fill-rule="evenodd" d="M16.872 7.34c0 1.212-1.017 2.195-2.272 2.195s-2.272-.983-2.272-2.194c0-1.213 1.017-2.195 2.272-2.195s2.272.982 2.272 2.195Zm0 7.771c0 1.204-1.017 2.18-2.272 2.18s-2.272-.976-2.272-2.18c0-1.204 1.017-2.18 2.272-2.18s2.272.977 2.272 2.18Zm0 7.771c0 1.212-1.017 2.194-2.272 2.194s-2.272-.982-2.272-2.194c0-1.21 1.017-2.194 2.272-2.194s2.272.983 2.272 2.194Z" clip-rule="evenodd"/>
</svg>
