<svg xmlns="http://www.w3.org/2000/svg" width="10" height="10" fill="none" viewBox="0 0 10 10">
  <path fill="#4676FB" fill-rule="evenodd" d="M1.071 1.25c0-.099.08-.179.179-.179h7.5c.099 0 .179.08.179.179v7.5c0 .099-.08.179-.179.179h-7.5a.179.179 0 0 1-.179-.179v-7.5ZM1.25 0C.56 0 0 .56 0 1.25v7.5C0 9.44.56 10 1.25 10h7.5C9.44 10 10 9.44 10 8.75v-7.5C10 .56 9.44 0 8.75 0h-7.5ZM7.7 3.772a.536.536 0 1 0-.757-.758L4.107 5.85 3.057 4.8a.536.536 0 0 0-.757.757l1.428 1.429c.21.21.549.21.758 0L7.7 3.772Z" clip-rule="evenodd"/>
</svg>
